<svg width="40" height="40" viewBox="0 0 40 40" fill="none" xmlns="http://www.w3.org/2000/svg">
<rect width="40" height="40" rx="8" fill="#FF0000" fill-opacity="0.25"/>
<circle cx="18" cy="14" r="4" stroke="#1C274C" stroke-width="1.5"/>
<path d="M26 25.5C26 27.9853 26 30 18 30C10 30 10 27.9853 10 25.5C10 23.0147 13.5817 21 18 21C22.4183 21 26 23.0147 26 25.5Z" stroke="#1C274C" stroke-width="1.5"/>
<path d="M26.0885 20.5385L26.5435 19.9423L26.0885 20.5385ZM27 16.6435L26.4681 17.1723C26.6089 17.3139 26.8003 17.3935 27 17.3935C27.1997 17.3935 27.3911 17.3139 27.5319 17.1723L27 16.6435ZM27.9115 20.5385L27.4565 19.9423L27.9115 20.5385ZM26.5435 19.9423C26.0571 19.571 25.619 19.274 25.2659 18.8891C24.9387 18.5324 24.75 18.1638 24.75 17.6997H23.25C23.25 18.6481 23.6642 19.362 24.1606 19.9031C24.6311 20.4161 25.2372 20.8322 25.6335 21.1347L26.5435 19.9423ZM24.75 17.6997C24.75 17.2878 24.9898 16.9547 25.2973 16.8186C25.5635 16.7008 25.9874 16.6887 26.4681 17.1723L27.5319 16.1148C26.6627 15.2405 25.5865 15.0503 24.6903 15.4469C23.8352 15.8253 23.25 16.6993 23.25 17.6997H24.75ZM25.6335 21.1347C25.7825 21.2483 25.9756 21.3959 26.1793 21.5111C26.3832 21.6265 26.6656 21.75 27 21.75V20.25C27.0344 20.25 27.0168 20.2615 26.9179 20.2056C26.8187 20.1495 26.7061 20.0663 26.5435 19.9423L25.6335 21.1347ZM28.3665 21.1347C28.7628 20.8322 29.3689 20.4161 29.8394 19.9031C30.3358 19.362 30.75 18.6481 30.75 17.6997H29.25C29.25 18.1638 29.0613 18.5324 28.7341 18.8891C28.381 19.274 27.9429 19.571 27.4565 19.9423L28.3665 21.1347ZM30.75 17.6997C30.75 16.6993 30.1648 15.8253 29.3097 15.4469C28.4135 15.0503 27.3373 15.2405 26.4681 16.1148L27.5319 17.1723C28.0126 16.6887 28.4365 16.7008 28.7027 16.8186C29.0102 16.9547 29.25 17.2878 29.25 17.6997H30.75ZM27.4565 19.9423C27.2939 20.0663 27.1813 20.1495 27.0821 20.2056C26.9832 20.2615 26.9656 20.25 27 20.25V21.75C27.3344 21.75 27.6168 21.6265 27.8207 21.5111C28.0244 21.3959 28.2175 21.2483 28.3665 21.1347L27.4565 19.9423Z" fill="#1C274C"/>
</svg>
